<svg width="640" height="400" viewBox="0 0 640 400" fill="none" xmlns="http://www.w3.org/2000/svg">
  <rect width="640" height="400" rx="32" fill="#0F172A"/>
  <rect x="32" y="32" width="320" height="336" rx="28" fill="#1E293B" stroke="#334155" stroke-width="2"/>
  <rect x="64" y="72" width="256" height="16" rx="8" fill="#475569"/>
  <rect x="64" y="108" width="256" height="200" rx="16" fill="#0F172A" stroke="#334155" stroke-width="2"/>
  <rect x="96" y="132" width="192" height="12" rx="6" fill="#CBD5F5"/>
  <rect x="96" y="160" width="176" height="12" rx="6" fill="#94A3B8" opacity="0.6"/>
  <rect x="96" y="188" width="160" height="12" rx="6" fill="#94A3B8" opacity="0.35"/>
  <rect x="368" y="72" width="240" height="160" rx="24" fill="#F8FAFC"/>
  <rect x="392" y="104" width="192" height="16" rx="8" fill="#E2E8F0"/>
  <rect x="392" y="136" width="128" height="12" rx="6" fill="#CBD5F5"/>
  <rect x="392" y="172" width="192" height="60" rx="16" fill="#EEF2FF"/>
  <rect x="368" y="256" width="240" height="112" rx="24" fill="#1E1B4B"/>
  <rect x="392" y="284" width="192" height="16" rx="8" fill="#C7D2FE" opacity="0.8"/>
  <rect x="392" y="316" width="160" height="16" rx="8" fill="#A5B4FC" opacity="0.6"/>
  <rect x="392" y="344" width="112" height="16" rx="8" fill="#818CF8"/>
  <rect x="520" y="344" width="56" height="16" rx="8" fill="#C7D2FE" opacity="0.6"/>
</svg>
