<svg width="640" height="400" viewBox="0 0 640 400" fill="none" xmlns="http://www.w3.org/2000/svg">
  <rect width="640" height="400" rx="32" fill="#FDF4FF"/>
  <rect x="48" y="48" width="544" height="304" rx="32" fill="#FFFFFF" stroke="#F5D0FE" stroke-width="2"/>
  <rect x="96" y="96" width="320" height="208" rx="24" fill="#F8FBFF" stroke="#E2E8F0" stroke-width="2"/>
  <rect x="128" y="128" width="256" height="16" rx="8" fill="#A21CAF" opacity="0.4"/>
  <rect x="128" y="160" width="256" height="16" rx="8" fill="#A21CAF" opacity="0.3"/>
  <rect x="128" y="192" width="256" height="16" rx="8" fill="#A21CAF" opacity="0.2"/>
  <rect x="128" y="272" width="112" height="32" rx="16" fill="#E879F9"/>
  <rect x="264" y="272" width="104" height="32" rx="16" fill="#FCE7F3"/>
  <rect x="448" y="96" width="128" height="208" rx="20" fill="#FEF3C7" stroke="#FCD34D" stroke-width="2"/>
  <rect x="472" y="168" width="80" height="16" rx="8" fill="#FCD34D" opacity="0.6"/>
  <rect x="472" y="200" width="80" height="16" rx="8" fill="#FCD34D" opacity="0.4"/>
  <rect x="472" y="248" width="80" height="32" rx="16" fill="#F59E0B"/>
  <circle cx="504" cy="128" r="24" fill="#4ADE80"/>
  <path d="M494 129L501 136L514 119" stroke="white" stroke-width="4" stroke-linecap="round" stroke-linejoin="round"/>
</svg>
